<svg xmlns="http://www.w3.org/2000/svg" width="800" height="800" fill="none" viewBox="0 0 48 48"><path fill="#fff" d="M8 0C3.58 0 0 3.58 0 8v32c0 4.42 3.58 8 8 8h32c4.42 0 8-3.58 8-8V8c0-4.42-3.58-8-8-8z"/><g stroke="#000" stroke-linecap="round" stroke-width="4"><path stroke-width="3" d="M21 16.5V9.75a.75.75 0 0 0-.75-.75H9.75a.75.75 0 0 0-.75.75v28.5a.75.75 0 0 0 .75.75h10.5a.75.75 0 0 0 .75-.75V31.5m6 0v6.75a.75.75 0 0 0 .75.75h10.5a.75.75 0 0 0 .75-.75V9.75a.75.75 0 0 0-.75-.75h-10.5a.75.75 0 0 0-.75.75v6.75m0 7.5h12M9.75 24H21"/><path stroke-linejoin="round" stroke-width="3" d="m30.562 27.614-1.194-1.193-2.386-2.387 2.387-2.387 1.192-1.192m-13.03 7.159 1.194-1.193 2.386-2.387-2.387-2.387-1.193-1.192"/></g></svg>
